<svg id="Layer_1" data-name="Layer 1" xmlns="http://www.w3.org/2000/svg" viewBox="0 0 316.89 96.57"><defs><style>.cls-1{fill:#ea9010;}.cls-2{fill:#1dbf73;}.cls-3{fill:#118ab2;}</style></defs><path class="cls-1" d="M.38,46.49a38.21,38.21,0,0,0,15,30.61.33.33,0,0,0,.53-.3c-.36-3.08-.75-7.07-1-11.66a.32.32,0,0,0-.06-.18,30.59,30.59,0,0,1,1.64-38.91.3.3,0,0,0,.08-.17,100.14,100.14,0,0,1,2.79-11.94.32.32,0,0,0-.48-.38A38.09,38.09,0,0,0,.38,46.49Z" transform="translate(-0.38 -1.03)"/><path class="cls-1" d="M70.79,34.57c-2.07,1.51-4.24,3.13-6.45,4.83a.37.37,0,0,0-.13.37,30.64,30.64,0,0,1,1,7.72c0,16.32-12.68,29.59-28.27,29.59a27.05,27.05,0,0,1-9.33-1.65.36.36,0,0,0-.42.13,33.64,33.64,0,0,0-3.59,6.82.36.36,0,0,0,.2.45,35.32,35.32,0,0,0,13.14,2.52c20.18,0,36.54-16.95,36.54-37.86a38.89,38.89,0,0,0-2.13-12.75A.35.35,0,0,0,70.79,34.57Z" transform="translate(-0.38 -1.03)"/><path class="cls-2" d="M67.59,69.35l2.36,2a.71.71,0,0,1,.08,1L65.3,77.89a.69.69,0,0,1-1,.09L62,76a.7.7,0,0,1-.09-1l4.74-5.62A.71.71,0,0,1,67.59,69.35Z" transform="translate(-0.38 -1.03)"/><path class="cls-1" d="M66.52,79.14l5.07-6.21a.91.91,0,0,1,1.22-.16L91.33,85.92a.92.92,0,0,1,.2,1.29l-7.68,10a.9.9,0,0,1-1.37.07l-15.92-17A.9.9,0,0,1,66.52,79.14Z" transform="translate(-0.38 -1.03)"/><path class="cls-2" d="M67.08,26.11c-3.58.63-6.77,1-9.47,1.24a73.29,73.29,0,0,1-9.08.27l-.07,0-4.72,3.15s0,0,0,0C38.12,41,33.51,41.41,33.12,41.43h-.06l-4.12-2.06a.12.12,0,0,1-.05-.15l2.05-4.09a.09.09,0,0,1,.09-.06c5.43,0,9.93-4.18,10.5-4.72a.12.12,0,0,0,0-.14L39,25.54a.06.06,0,0,0-.06-.05,17.34,17.34,0,0,1-9.12-6.64,33.28,33.28,0,0,1-4.13-7.38C25.3,10.61,25.07,10,25,9.6a.11.11,0,0,0-.21,0c-.35.84-.67,1.7-1,2.57a85.61,85.61,0,0,0-3.13,11.15,136.81,136.81,0,0,0-2.67,23c-.06,1.68-.1,3.33-.12,5,0,1.23,0,2.44,0,3.64,0,1.7.05,3.35.11,5,0,1.24.09,2.46.15,3.64.09,1.73.19,3.39.31,5,0,.49.07,1,.11,1.45.37,4.74.83,8.55,1.15,10.93.08.58.15,1.08.21,1.49a.11.11,0,0,0,.22,0c.11-.35.22-.71.36-1.07A35.75,35.75,0,0,1,24.28,74c1.16-1.78,2.51-3.62,4-5.47,1.31-1.64,2.73-3.29,4.24-5,1.09-1.21,2.24-2.42,3.42-3.64q2.41-2.49,5-5c1.28-1.22,2.59-2.44,3.92-3.64,1.85-1.68,3.74-3.34,5.64-5,4.19-3.58,8.45-7,12.53-10.11,2.36-1.8,4.64-3.5,6.83-5.07,5.39-3.89,10.12-7,13.44-8.91a.11.11,0,0,0-.09-.21A111.81,111.81,0,0,1,67.08,26.11Z" transform="translate(-0.38 -1.03)"/><circle class="cls-2" cx="47.95" cy="11.24" r="11.24"/><path class="cls-1" d="M92.57,11.19,91,16.25a.06.06,0,0,0,0,.07l4.33,3a.07.07,0,0,1,0,.12l-5.29.1a.07.07,0,0,0-.06,0l-1.55,5.06a.06.06,0,0,1-.12,0l-1.73-5a.05.05,0,0,0-.06,0l-5.29.09a.07.07,0,0,1,0-.12l4.23-3.18a.08.08,0,0,0,0-.08l-1.72-5a.07.07,0,0,1,.1-.08l4.33,3s.06,0,.08,0l4.22-3.19C92.51,11.08,92.59,11.13,92.57,11.19Z" transform="translate(-0.38 -1.03)"/><path class="cls-1" d="M58.91,46.42v4.79a.09.09,0,0,1-.09.08H50.1a.09.09,0,0,1-.06-.15c1.94-1.7,3.83-3.3,5.62-4.79l.05,0h3.11A.09.09,0,0,1,58.91,46.42Z" transform="translate(-0.38 -1.03)"/><path class="cls-1" d="M58.91,55v4.76a.11.11,0,0,1-.11.1H40.85a.1.1,0,0,1-.07-.18c1.64-1.62,3.33-3.21,5-4.75a.11.11,0,0,1,.07,0H58.8A.1.1,0,0,1,58.91,55Z" transform="translate(-0.38 -1.03)"/><path class="cls-1" d="M52,63.61v4.8a.08.08,0,0,1-.08.08H32.73a.09.09,0,0,1-.06-.14c1.37-1.6,2.82-3.21,4.33-4.8l.06,0H51.88A.07.07,0,0,1,52,63.61Z" transform="translate(-0.38 -1.03)"/><ellipse class="cls-2" cx="35.59" cy="90.45" rx="28.94" ry="1.81"/><path class="cls-3" d="M91.78,67.55H85a.37.37,0,0,1-.37-.37V30.34A.38.38,0,0,1,85,30h6.79a.38.38,0,0,1,.37.37v14.3a.36.36,0,0,0,.37.37H106.8a.37.37,0,0,0,.37-.37V30.34a.37.37,0,0,1,.37-.37h6.78a.38.38,0,0,1,.37.37V67.18a.37.37,0,0,1-.37.37h-6.78a.36.36,0,0,1-.37-.37V52.91a.37.37,0,0,0-.37-.37H92.52a.36.36,0,0,0-.37.37V67.18A.37.37,0,0,1,91.78,67.55Z" transform="translate(-0.38 -1.03)"/><path class="cls-3" d="M127.3,77.87V71.43a.37.37,0,0,1,.38-.38l3.6,0a6,6,0,0,0,2-.34,7.19,7.19,0,0,0,3.82-3.23.39.39,0,0,0-.49-.54l-1.46.6a6.47,6.47,0,0,1-2.45.5,12.94,12.94,0,0,1-4.87-.92,11.94,11.94,0,0,1-4-2.61,11.77,11.77,0,0,1-2.7-4.11,14.29,14.29,0,0,1-1-5.44V39.87a.39.39,0,0,1,.38-.39h6.36a.4.4,0,0,1,.39.39V55a7.14,7.14,0,0,0,.43,2.61,5.45,5.45,0,0,0,1.16,1.86,4.63,4.63,0,0,0,1.72,1.11,5.89,5.89,0,0,0,2.11.37,4.44,4.44,0,0,0,2.08-.51,5.78,5.78,0,0,0,1.72-1.35,6.44,6.44,0,0,0,1.15-1.9,5.92,5.92,0,0,0,.42-2.19V39.87a.4.4,0,0,1,.39-.39h6.44a.39.39,0,0,1,.38.39V64a14.17,14.17,0,0,1-1.15,5.55,14.53,14.53,0,0,1-3.08,4.54,14.69,14.69,0,0,1-4.55,3.06A13.82,13.82,0,0,1,131,78.3l-3.29,0A.37.37,0,0,1,127.3,77.87Z" transform="translate(-0.38 -1.03)"/><path class="cls-3" d="M195.79,39.37a25.48,25.48,0,0,0-3.29.4c-1.28.26-5,1-7.29,4.13a10.82,10.82,0,0,0-1.67,3.85,13.82,13.82,0,0,0-.36,3.82l0,15.79h7.17q0-6.66,0-13.31c0-2.08.06-4.39,1.48-5.92a6.64,6.64,0,0,1,4.93-1.72,39.53,39.53,0,0,0,5.44,0l-.39-7.11c-1.56-.05-3.13-.05-4.69,0Z" transform="translate(-0.38 -1.03)"/><path class="cls-3" d="M232.16,53.27A15.14,15.14,0,0,1,231,59.13,14.84,14.84,0,0,1,228,63.82a14.3,14.3,0,0,1-4.55,3.12,14.23,14.23,0,0,1-11.16,0,14.38,14.38,0,0,1-7.64-7.81,15,15,0,0,1-1.13-5.86,15.16,15.16,0,0,1,1.13-5.92,14.21,14.21,0,0,1,7.64-7.81,13.87,13.87,0,0,1,5.57-1.13,14.64,14.64,0,0,1,5.59,1.06,13.54,13.54,0,0,1,4.55,3,14.56,14.56,0,0,1,3.07,4.7A15.84,15.84,0,0,1,232.16,53.27Zm-7.21,0a8.23,8.23,0,0,0-.56-3.13,7.36,7.36,0,0,0-1.53-2.41,6.56,6.56,0,0,0-2.27-1.55,7.35,7.35,0,0,0-5.53,0,6.39,6.39,0,0,0-2.25,1.55,7.31,7.31,0,0,0-1.51,2.41,8.43,8.43,0,0,0-.55,3.13,8,8,0,0,0,.55,3,7.68,7.68,0,0,0,1.51,2.42,7.12,7.12,0,0,0,2.25,1.61,6.69,6.69,0,0,0,2.77.59,7.12,7.12,0,0,0,2.76-.55,6.84,6.84,0,0,0,2.27-1.55,7.25,7.25,0,0,0,1.53-2.41A8.25,8.25,0,0,0,225,53.27Z" transform="translate(-0.38 -1.03)"/><path class="cls-1" d="M252.71,52.54a14.53,14.53,0,0,1-1.18,5.85,14.85,14.85,0,0,1-3.21,4.77,15,15,0,0,1-4.77,3.22,14.78,14.78,0,0,1-5.86,1.17,15.3,15.3,0,0,1-3.48-.4.38.38,0,0,1-.29-.37V59.64a.38.38,0,0,1,.54-.34,7.38,7.38,0,0,0,1.27.47,7.55,7.55,0,0,0,4.89-.33A7.57,7.57,0,0,0,243,57.83a7.67,7.67,0,0,0,1.62-2.38,7.31,7.31,0,0,0,.59-2.91V30.35a.37.37,0,0,1,.37-.38h6.74a.38.38,0,0,1,.38.38Z" transform="translate(-0.38 -1.03)"/><path class="cls-1" d="M317.27,53.27a15.68,15.68,0,0,1-1.13,6A14.15,14.15,0,0,1,313.07,64a13.62,13.62,0,0,1-4.54,3,14.51,14.51,0,0,1-5.6,1.08,14.12,14.12,0,0,1-13.21-8.85,15.4,15.4,0,0,1-1.13-6V28.7a.38.38,0,0,1,.39-.38h6.41a.38.38,0,0,1,.38.38V40.45a.39.39,0,0,0,.65.28,5.85,5.85,0,0,1,.76-.62,8.18,8.18,0,0,1,1.78-.94,11.19,11.19,0,0,1,2-.56,9.81,9.81,0,0,1,2-.2,14.17,14.17,0,0,1,5.6,1.11,14,14,0,0,1,4.54,3.11,14.66,14.66,0,0,1,3.07,4.7A15.37,15.37,0,0,1,317.27,53.27Zm-7.21,0a8.2,8.2,0,0,0-.56-3A7.64,7.64,0,0,0,308,47.82a6.94,6.94,0,0,0-2.26-1.6,6.84,6.84,0,0,0-2.77-.58,6.16,6.16,0,0,0-2.77.65A7.39,7.39,0,0,0,297.9,48a7.78,7.78,0,0,0-1.52,2.44,7.48,7.48,0,0,0-.55,2.84,8,8,0,0,0,.55,3,7.36,7.36,0,0,0,1.52,2.42,7.28,7.28,0,0,0,2.26,1.61,6.8,6.8,0,0,0,5.54,0A7.28,7.28,0,0,0,308,58.7a7.76,7.76,0,0,0,1.54-2.42A8,8,0,0,0,310.06,53.27Z" transform="translate(-0.38 -1.03)"/><path class="cls-3" d="M150.44,47.33a14.83,14.83,0,0,1,3.07-4.7,14,14,0,0,1,4.55-3.11,14.12,14.12,0,0,1,5.59-1.11,10,10,0,0,1,2,.2,10.85,10.85,0,0,1,2,.56,8.25,8.25,0,0,1,1.79.94,6.62,6.62,0,0,1,.76.62.38.38,0,0,0,.64-.28V28.7a.38.38,0,0,1,.38-.38h6.42a.38.38,0,0,1,.38.38V53.27a15.4,15.4,0,0,1-1.13,6,14.13,14.13,0,0,1-13.21,8.85A14.46,14.46,0,0,1,158.06,67a13.56,13.56,0,0,1-4.55-3,14.31,14.31,0,0,1-3.07-4.68,15.68,15.68,0,0,1-1.12-6A15.37,15.37,0,0,1,150.44,47.33Zm6.65,9a7.55,7.55,0,0,0,1.53,2.42,7.33,7.33,0,0,0,2.27,1.61,6.61,6.61,0,0,0,2.76.59,6.69,6.69,0,0,0,2.77-.59,7.44,7.44,0,0,0,2.27-1.61,7.71,7.71,0,0,0,1.52-2.42,8.22,8.22,0,0,0,.55-3,7.67,7.67,0,0,0-.55-2.84A8.16,8.16,0,0,0,168.69,48a7.56,7.56,0,0,0-2.27-1.7,6.16,6.16,0,0,0-2.77-.65,6.76,6.76,0,0,0-2.76.58,7,7,0,0,0-2.27,1.6,7.45,7.45,0,0,0-1.53,2.42,8,8,0,0,0-.57,3A7.83,7.83,0,0,0,157.09,56.28Z" transform="translate(-0.38 -1.03)"/><polygon class="cls-2" points="283.38 67.96 278.72 71.11 273.96 64.17 278.62 61.02 283.38 67.96"/><path class="cls-1" d="M289.32,76.78l-4.44,3a1.16,1.16,0,0,1-1.59-.1l-6-8.66a1.13,1.13,0,0,1,.47-1.51l4.43-3a1.15,1.15,0,0,1,1.59.1l6,8.66A1.13,1.13,0,0,1,289.32,76.78Z" transform="translate(-0.38 -1.03)"/><path class="cls-1" d="M285.21,53.27a15,15,0,0,1-1.13,5.86A14.65,14.65,0,0,1,281,63.82a14.3,14.3,0,0,1-4.55,3.12,14.23,14.23,0,0,1-11.16,0,14.35,14.35,0,0,1-7.65-7.81,15.14,15.14,0,0,1-1.12-5.86,15.34,15.34,0,0,1,1.12-5.92,14.68,14.68,0,0,1,3.08-4.71,14.39,14.39,0,0,1,4.57-3.1,13.87,13.87,0,0,1,5.57-1.13,14.64,14.64,0,0,1,5.59,1.06,13.54,13.54,0,0,1,4.55,3,14.37,14.37,0,0,1,3.06,4.7A15.66,15.66,0,0,1,285.21,53.27Zm-7.21,0a8.23,8.23,0,0,0-.56-3.13,7.52,7.52,0,0,0-1.53-2.41,6.56,6.56,0,0,0-2.27-1.55,7.35,7.35,0,0,0-5.53,0,6.39,6.39,0,0,0-2.25,1.55,7.31,7.31,0,0,0-1.51,2.41,8.43,8.43,0,0,0-.55,3.13,8,8,0,0,0,.55,3,7.68,7.68,0,0,0,1.51,2.42,7.12,7.12,0,0,0,2.25,1.61,6.65,6.65,0,0,0,2.77.59,7.12,7.12,0,0,0,2.76-.55,6.84,6.84,0,0,0,2.27-1.55,7.41,7.41,0,0,0,1.53-2.41A8.25,8.25,0,0,0,278,53.27Z" transform="translate(-0.38 -1.03)"/></svg>